<?xml version="1.0" encoding="UTF-8" standalone="no"?>
<svg
   xmlns:dc="http://purl.org/dc/elements/1.1/"
   xmlns:cc="http://creativecommons.org/ns#"
   xmlns:rdf="http://www.w3.org/1999/02/22-rdf-syntax-ns#"
   xmlns:svg="http://www.w3.org/2000/svg"
   xmlns="http://www.w3.org/2000/svg"
   xmlns:sodipodi="http://sodipodi.sourceforge.net/DTD/sodipodi-0.dtd"
   xmlns:inkscape="http://www.inkscape.org/namespaces/inkscape"
   viewBox="0 0 2367.0124 192.38107"
   version="1.1"
   id="svg8"
   sodipodi:docname="vinyl-sticker2.svg"
   inkscape:version="0.92.2 (5c3e80d, 2017-08-06)"
   width="24.65638in"
   height="2.0039694in">
  <metadata
     id="metadata14">
    <rdf:RDF>
      <cc:Work
         rdf:about="">
        <dc:format>image/svg+xml</dc:format>
        <dc:type
           rdf:resource="http://purl.org/dc/dcmitype/StillImage" />
        <dc:title></dc:title>
      </cc:Work>
    </rdf:RDF>
  </metadata>
  <defs
     id="defs12" />
  <sodipodi:namedview
     pagecolor="#ffffff"
     bordercolor="#666666"
     borderopacity="1"
     objecttolerance="10"
     gridtolerance="10"
     guidetolerance="10"
     inkscape:pageopacity="0"
     inkscape:pageshadow="2"
     inkscape:window-width="1440"
     inkscape:window-height="840"
     id="namedview10"
     showgrid="false"
     inkscape:zoom="0.23046875"
     inkscape:cx="1304.2265"
     inkscape:cy="-344.13263"
     inkscape:window-x="0"
     inkscape:window-y="23"
     inkscape:window-maximized="1"
     inkscape:current-layer="text825"
     fit-margin-top="0"
     fit-margin-left="0"
     fit-margin-right="0"
     fit-margin-bottom="0"
     units="in" />
  <g
     id="g830"
     transform="translate(0.19053555,-319.80946)"
     style="fill:none;stroke:#000000;stroke-opacity:1">
    <path
       inkscape:connector-curvature="0"
       id="path2"
       d="m 95.99943,337.29765 c 25.63302,0 28.66901,0.0979 38.79288,0.55979 9.35983,0.42719 14.44254,1.99073 17.82567,3.30543 a 29.743242,29.743479 0 0 1 11.03807,7.18131 29.743242,29.743479 0 0 1 7.18125,11.03815 c 1.31469,3.38278 2.8786,8.46591 3.3054,17.82581 0.46185,10.1232 0.55979,13.1592 0.55979,38.79319 0,25.634 -0.0979,28.66924 -0.55979,38.79319 -0.42718,9.35991 -1.99109,14.44266 -3.3054,17.82582 a 31.791491,31.791744 0 0 1 -18.21932,18.21946 c -3.38275,1.3147 -8.46584,2.87862 -17.82567,3.30542 -10.12121,0.46186 -13.15719,0.5598 -38.79288,0.5598 -25.635695,0 -28.670533,-0.0979 -38.792884,-0.5598 -9.359831,-0.42718 -14.442537,-1.9911 -17.825673,-3.30542 a 29.742861,29.743098 0 0 1 -11.038061,-7.18131 29.743624,29.74386 0 0 1 -7.181256,-11.03815 c -1.31469,-3.38278 -2.8786,-8.46591 -3.305398,-17.82582 -0.461856,-10.12281 -0.559791,-13.15919 -0.559791,-38.79319 0,-25.63399 0.09793,-28.66923 0.559791,-38.79319 0.427179,-9.3599 1.990708,-14.44265 3.305398,-17.82581 a 29.743242,29.743479 0 0 1 7.182018,-11.03853 29.743624,29.74386 0 0 1 11.038061,-7.18131 c 3.382755,-1.3147 8.465842,-2.87863 17.825673,-3.30543 10.123113,-0.46186 13.159094,-0.55979 38.792882,-0.55979 m 0,-17.29727 c -26.072018,0 -29.342357,0.11051 -39.580172,0.57771 -10.218381,0.46643 -17.196527,2.08904 -23.302786,4.46236 A 47.05752,47.057893 0 0 0 16.113908,336.11289 47.05752,47.057893 0 0 0 5.0381209,353.11635 C 2.6667249,359.22304 1.0441306,366.20124 0.5796068,376.4197 0.1105102,386.6576 0,389.92797 0,416.00019 c 0,26.07223 0.1105102,29.34259 0.5796068,39.58049 0.4664292,10.21846 2.0890234,17.19666 4.4623247,23.30297 a 47.057901,47.058274 0 0 0 11.0727385,17.00346 47.056758,47.057131 0 0 0 17.003325,11.07282 c 6.10664,2.37332 13.084786,3.99593 23.302785,4.46236 C 66.66012,511.88949 69.929316,512 96.00095,512 c 26.07164,0 29.34236,-0.11051 39.58018,-0.57771 10.21838,-0.46643 17.19652,-2.08904 23.30278,-4.46236 a 49.088239,49.088629 0 0 0 28.07606,-28.07628 c 2.37331,-6.10669 3.9959,-13.08489 4.46233,-23.30297 0.46719,-10.23942 0.5777,-13.50865 0.5777,-39.58049 0,-26.07184 -0.11051,-29.34259 -0.5777,-39.58049 -0.46643,-10.21846 -2.08902,-17.19666 -4.46233,-23.30297 a 47.056758,47.057131 0 0 0 -11.07273,-17.00346 47.057139,47.057512 0 0 0 -17.00447,-11.07511 c -6.10664,-2.37141 -13.08479,-3.99402 -23.30317,-4.45855 C 125.34179,320.11051 122.07145,320 95.99943,320 v 0 z"
       style="fill:none;stroke:#000000;stroke-width:0.38107109;stroke-opacity:1" />
    <path
       inkscape:connector-curvature="0"
       id="path4"
       d="m 95.99943,366.70273 a 49.297066,49.297457 0 1 0 49.29706,49.29746 49.297066,49.297457 0 0 0 -49.29706,-49.29746 z m 0,81.29727 A 31.999555,31.999809 0 1 1 127.99936,416.00019 31.999936,32.000191 0 0 1 95.99943,448 Z"
       style="fill:none;stroke:#000000;stroke-width:0.38107109;stroke-opacity:1" />
    <ellipse
       ry="11.519825"
       rx="11.519733"
       id="circle6"
       cy="364.75507"
       cx="147.24416"
       style="fill:none;stroke:#000000;stroke-width:0.38107109;stroke-opacity:1" />
  </g>
  <g
     aria-label="mobythebiggreyvan"
     style="font-style:normal;font-weight:normal;font-size:186.10151672px;line-height:1.25;font-family:sans-serif;letter-spacing:0px;word-spacing:0px;fill:none;fill-opacity:1;stroke:#000000;stroke-width:1;stroke-miterlimit:4;stroke-dasharray:none;stroke-opacity:1"
     id="text825">
    <path
       d="m 383.00468,61.932585 q 6.17915,-9.450468 14.63005,-14.357442 8.54177,-4.997843 18.7192,-4.997843 17.53788,0 26.71574,10.813516 9.17786,10.813516 9.17786,31.440979 V 146.80505 H 419.53437 V 93.737043 q 0.0909,-1.181308 0.0909,-2.453487 0.0909,-1.272178 0.0909,-3.634795 0,-10.813516 -3.18044,-15.62962 -3.18045,-4.906973 -10.2683,-4.906973 -9.26873,0 -14.35744,7.63307 -4.99784,7.63307 -5.17958,22.081381 V 146.80505 H 354.01719 V 93.737043 q 0,-16.901798 -2.90784,-21.717902 -2.90783,-4.906973 -10.35916,-4.906973 -9.3596,0 -14.44832,7.72394 -5.08871,7.63307 -5.08871,21.899641 V 146.80505 H 288.5 V 45.030787 h 32.71316 v 14.90266 q 5.99741,-8.632638 13.72135,-12.994393 7.81481,-4.361754 17.17441,-4.361754 10.54091,0 18.62833,5.088713 8.08742,5.088714 12.26743,14.266572 z"
       style="font-style:normal;font-variant:normal;font-weight:bold;font-stretch:normal;font-size:186.10151672px;font-family:sans-serif;-inkscape-font-specification:'sans-serif, Bold';font-variant-ligatures:normal;font-variant-caps:normal;font-variant-numeric:normal;font-feature-settings:normal;text-align:start;writing-mode:lr-tb;text-anchor:start;fill:none;stroke:#000000;stroke-width:1;stroke-miterlimit:4;stroke-dasharray:none;stroke-opacity:1"
       id="path938" />
    <path
       d="m 531.21346,65.83999 q -10.81352,0 -16.53832,7.814809 -5.63393,7.72394 -5.63393,22.353991 0,14.63005 5.63393,22.44486 5.7248,7.72394 16.53832,7.72394 10.63177,0 16.26571,-7.72394 5.63393,-7.81481 5.63393,-22.44486 0,-14.630051 -5.63393,-22.353991 -5.63394,-7.814809 -16.26571,-7.814809 z m 0,-23.26269 q 26.26139,0 40.98231,14.175701 14.8118,14.175702 14.8118,39.255789 0,25.08009 -14.8118,39.25579 -14.72092,14.1757 -40.98231,14.1757 -26.35227,0 -41.25493,-14.1757 -14.81179,-14.1757 -14.81179,-39.25579 0,-25.080087 14.81179,-39.255789 Q 504.86119,42.5773 531.21346,42.5773 Z"
       style="font-style:normal;font-variant:normal;font-weight:bold;font-stretch:normal;font-size:186.10151672px;font-family:sans-serif;-inkscape-font-specification:'sans-serif, Bold';font-variant-ligatures:normal;font-variant-caps:normal;font-variant-numeric:normal;font-feature-settings:normal;text-align:start;writing-mode:lr-tb;text-anchor:start;fill:none;stroke:#000000;stroke-width:1;stroke-miterlimit:4;stroke-dasharray:none;stroke-opacity:1"
       id="path940" />
    <path
       d="m 664.88304,125.81411 q 10.45004,0 15.90223,-7.63307 5.54306,-7.63307 5.54306,-22.17225 0,-14.539181 -5.54306,-22.172251 -5.45219,-7.63307 -15.90223,-7.63307 -10.45004,0 -16.08397,7.72394 -5.54306,7.63307 -5.54306,22.081381 0,14.44831 5.54306,22.17225 5.63393,7.63307 16.08397,7.63307 z M 643.25601,59.933447 q 6.72437,-8.905248 14.90266,-13.085263 8.17829,-4.270884 18.81006,-4.270884 18.81007,0 30.89576,14.99353 12.0857,14.902661 12.0857,38.43796 0,23.5353 -12.0857,38.52883 -12.08569,14.90266 -30.89576,14.90266 -10.63177,0 -18.81006,-4.18001 -8.17829,-4.27089 -14.90266,-13.17614 v 14.72092 H 610.72459 V 5.4115185 h 32.53142 z"
       style="font-style:normal;font-variant:normal;font-weight:bold;font-stretch:normal;font-size:186.10151672px;font-family:sans-serif;-inkscape-font-specification:'sans-serif, Bold';font-variant-ligatures:normal;font-variant-caps:normal;font-variant-numeric:normal;font-feature-settings:normal;text-align:start;writing-mode:lr-tb;text-anchor:start;fill:none;stroke:#000000;stroke-width:1;stroke-miterlimit:4;stroke-dasharray:none;stroke-opacity:1"
       id="path942" />
    <path
       d="m 730.76372,45.030787 h 32.53142 l 27.35183,69.061113 23.26269,-69.061113 h 32.53142 L 803.64137,156.43726 q -6.45177,16.99267 -15.0844,23.71704 -8.54177,6.81524 -22.62661,6.81524 H 747.1203 v -21.35442 h 10.17743 q 8.26916,0 11.99482,-2.63523 3.81654,-2.63522 5.90654,-9.45047 l 0.9087,-2.81696 z"
       style="font-style:normal;font-variant:normal;font-weight:bold;font-stretch:normal;font-size:186.10151672px;font-family:sans-serif;-inkscape-font-specification:'sans-serif, Bold';font-variant-ligatures:normal;font-variant-caps:normal;font-variant-numeric:normal;font-feature-settings:normal;text-align:start;writing-mode:lr-tb;text-anchor:start;fill:none;stroke:#000000;stroke-width:1;stroke-miterlimit:4;stroke-dasharray:none;stroke-opacity:1"
       id="path944" />
    <path
       d="m 901.05391,16.134165 v 28.896622 h 33.53098 v 23.262689 h -33.53098 v 43.163194 q 0,7.08785 2.81696,9.63221 2.81697,2.45348 11.177,2.45348 h 16.72006 v 23.26269 h -27.89706 q -19.26441,0 -27.35183,-7.99655 -7.99655,-8.08742 -7.99655,-27.35183 V 68.293476 H 852.34765 V 45.030787 h 16.17484 V 16.134165 Z"
       style="font-style:normal;font-variant:normal;font-weight:bold;font-stretch:normal;font-size:186.10151672px;font-family:sans-serif;-inkscape-font-specification:'sans-serif, Bold';font-variant-ligatures:normal;font-variant-caps:normal;font-variant-numeric:normal;font-feature-settings:normal;text-align:start;writing-mode:lr-tb;text-anchor:start;fill:none;stroke:#000000;stroke-width:1;stroke-miterlimit:4;stroke-dasharray:none;stroke-opacity:1"
       id="path946" />
    <path
       d="m 1056.8957,84.831795 v 61.973255 h -32.7132 V 136.7185 99.552715 q 0,-13.357872 -0.636,-18.355716 -0.5453,-4.997843 -1.9992,-7.36046 -1.9083,-3.180446 -5.1796,-4.906973 -3.2713,-1.817398 -7.4513,-1.817398 -10.17742,0 -15.9931,7.90568 -5.81567,7.814809 -5.81567,21.717901 V 146.80505 H 954.57621 V 5.4115185 h 32.53142 V 59.933447 q 7.36046,-8.905248 15.62967,-13.085263 8.2691,-4.270884 18.2648,-4.270884 17.6288,0 26.7157,10.813516 9.1779,10.813516 9.1779,31.440979 z"
       style="font-style:normal;font-variant:normal;font-weight:bold;font-stretch:normal;font-size:186.10151672px;font-family:sans-serif;-inkscape-font-specification:'sans-serif, Bold';font-variant-ligatures:normal;font-variant-caps:normal;font-variant-numeric:normal;font-feature-settings:normal;text-align:start;writing-mode:lr-tb;text-anchor:start;fill:none;stroke:#000000;stroke-width:1;stroke-miterlimit:4;stroke-dasharray:none;stroke-opacity:1"
       id="path948" />
    <path
       d="m 1188.8388,95.645311 v 9.268729 h -76.0581 q 1.1813,11.4496 8.2692,17.17441 7.0878,5.7248 19.8096,5.7248 10.2683,0 20.9909,-2.99871 10.8135,-3.08957 22.1723,-9.26873 v 25.08009 q -11.5405,4.36176 -23.081,6.54263 -11.5404,2.27175 -23.0809,2.27175 -27.6245,0 -42.9815,-13.99396 -15.2661,-14.08483 -15.2661,-39.43753 0,-24.898347 14.9935,-39.164919 15.0844,-14.266571 41.4367,-14.266571 23.9896,0 38.3471,14.448311 14.4483,14.448311 14.4483,38.6197 z m -33.4401,-10.813516 q 0,-9.268728 -5.4522,-14.902661 -5.3613,-5.724802 -14.0849,-5.724802 -9.4504,0 -15.357,5.361323 -5.9065,5.270453 -7.3604,15.26614 z"
       style="font-style:normal;font-variant:normal;font-weight:bold;font-stretch:normal;font-size:186.10151672px;font-family:sans-serif;-inkscape-font-specification:'sans-serif, Bold';font-variant-ligatures:normal;font-variant-caps:normal;font-variant-numeric:normal;font-feature-settings:normal;text-align:start;writing-mode:lr-tb;text-anchor:start;fill:none;stroke:#000000;stroke-width:1;stroke-miterlimit:4;stroke-dasharray:none;stroke-opacity:1"
       id="path950" />
    <path
       d="m 1267.5321,125.81411 q 10.45,0 15.9022,-7.63307 5.5431,-7.63307 5.5431,-22.17225 0,-14.539181 -5.5431,-22.172251 -5.4522,-7.63307 -15.9022,-7.63307 -10.45,0 -16.084,7.72394 -5.543,7.63307 -5.543,22.081381 0,14.44831 5.543,22.17225 5.634,7.63307 16.084,7.63307 z m -21.627,-65.880663 q 6.7243,-8.905248 14.9026,-13.085263 8.1783,-4.270884 18.8101,-4.270884 18.81,0 30.8957,14.99353 12.0857,14.902661 12.0857,38.43796 0,23.5353 -12.0857,38.52883 -12.0857,14.90266 -30.8957,14.90266 -10.6318,0 -18.8101,-4.18001 -8.1783,-4.27089 -14.9026,-13.17614 v 14.72092 h -32.5315 V 5.4115185 h 32.5315 z"
       style="font-style:normal;font-variant:normal;font-weight:bold;font-stretch:normal;font-size:186.10151672px;font-family:sans-serif;-inkscape-font-specification:'sans-serif, Bold';font-variant-ligatures:normal;font-variant-caps:normal;font-variant-numeric:normal;font-feature-settings:normal;text-align:start;writing-mode:lr-tb;text-anchor:start;fill:none;stroke:#000000;stroke-width:1;stroke-miterlimit:4;stroke-dasharray:none;stroke-opacity:1"
       id="path952" />
    <path
       d="m 1346.7706,45.030787 h 32.5314 V 146.80505 h -32.5314 z m 0,-39.6192685 h 32.5314 V 31.945524 h -32.5314 z"
       style="font-style:normal;font-variant:normal;font-weight:bold;font-stretch:normal;font-size:186.10151672px;font-family:sans-serif;-inkscape-font-specification:'sans-serif, Bold';font-variant-ligatures:normal;font-variant-caps:normal;font-variant-numeric:normal;font-feature-settings:normal;text-align:start;writing-mode:lr-tb;text-anchor:start;fill:none;stroke:#000000;stroke-width:1;stroke-miterlimit:4;stroke-dasharray:none;stroke-opacity:1"
       id="path954" />
    <path
       d="m 1479.9859,129.53978 q -6.7244,8.90524 -14.8118,13.08526 -8.0874,4.18001 -18.7192,4.18001 -18.6283,0 -30.8049,-14.63005 -12.1766,-14.72092 -12.1766,-37.438388 0,-22.80834 12.1766,-37.347521 12.1766,-14.630051 30.8049,-14.630051 10.6318,0 18.7192,4.180014 8.0874,4.180015 14.8118,13.176133 v -15.0844 h 32.7131 v 91.505973 q 0,24.53487 -15.5387,37.43839 -15.4479,12.99439 -44.8897,12.99439 -9.5414,0 -18.4466,-1.45392 -8.9053,-1.45391 -17.9014,-4.45262 v -25.3527 q 8.5418,4.90698 16.7201,7.26959 8.1783,2.45349 16.4474,2.45349 15.9931,0 23.4444,-6.99698 7.4514,-6.99698 7.4514,-21.89964 z m -21.4453,-63.336311 q -10.0866,0 -15.7205,7.45133 -5.6339,7.451331 -5.6339,21.081813 0,13.993958 5.4522,21.263548 5.4521,7.17872 15.9022,7.17872 10.1774,0 15.8113,-7.45133 5.634,-7.45133 5.634,-20.990938 0,-13.630482 -5.634,-21.081813 -5.6339,-7.45133 -15.8113,-7.45133 z"
       style="font-style:normal;font-variant:normal;font-weight:bold;font-stretch:normal;font-size:186.10151672px;font-family:sans-serif;-inkscape-font-specification:'sans-serif, Bold';font-variant-ligatures:normal;font-variant-caps:normal;font-variant-numeric:normal;font-feature-settings:normal;text-align:start;writing-mode:lr-tb;text-anchor:start;fill:none;stroke:#000000;stroke-width:1;stroke-miterlimit:4;stroke-dasharray:none;stroke-opacity:1"
       id="path956" />
    <path
       d="m 1613.3828,129.53978 q -6.7243,8.90524 -14.8117,13.08526 -8.0875,4.18001 -18.7192,4.18001 -18.6284,0 -30.8049,-14.63005 -12.1766,-14.72092 -12.1766,-37.438388 0,-22.80834 12.1766,-37.347521 12.1765,-14.630051 30.8049,-14.630051 10.6317,0 18.7192,4.180014 8.0874,4.180015 14.8117,13.176133 v -15.0844 h 32.7132 v 91.505973 q 0,24.53487 -15.5387,37.43839 -15.4479,12.99439 -44.8898,12.99439 -9.5413,0 -18.4466,-1.45392 -8.9052,-1.45391 -17.9013,-4.45262 v -25.3527 q 8.5417,4.90698 16.72,7.26959 8.1783,2.45349 16.4475,2.45349 15.9931,0 23.4444,-6.99698 7.4513,-6.99698 7.4513,-21.89964 z m -21.4452,-63.336311 q -10.0866,0 -15.7205,7.45133 -5.634,7.451331 -5.634,21.081813 0,13.993958 5.4522,21.263548 5.4522,7.17872 15.9023,7.17872 10.1774,0 15.8113,-7.45133 5.6339,-7.45133 5.6339,-20.990938 0,-13.630482 -5.6339,-21.081813 -5.6339,-7.45133 -15.8113,-7.45133 z"
       style="font-style:normal;font-variant:normal;font-weight:bold;font-stretch:normal;font-size:186.10151672px;font-family:sans-serif;-inkscape-font-specification:'sans-serif, Bold';font-variant-ligatures:normal;font-variant-caps:normal;font-variant-numeric:normal;font-feature-settings:normal;text-align:start;writing-mode:lr-tb;text-anchor:start;fill:none;stroke:#000000;stroke-width:1;stroke-miterlimit:4;stroke-dasharray:none;stroke-opacity:1"
       id="path958" />
    <path
       d="m 1753.1407,72.746101 q -4.2709,-1.999138 -8.5418,-2.907837 -4.18,-0.999568 -8.4509,-0.999568 -12.54,0 -19.3552,8.087419 -6.7244,7.99655 -6.7244,22.99008 V 146.80505 H 1677.537 V 45.030787 h 32.5314 v 16.720058 q 6.27,-9.995687 14.3574,-14.539181 8.1783,-4.634364 19.5371,-4.634364 1.6356,0 3.5439,0.18174 1.9082,0.09087 5.543,0.545219 z"
       style="font-style:normal;font-variant:normal;font-weight:bold;font-stretch:normal;font-size:186.10151672px;font-family:sans-serif;-inkscape-font-specification:'sans-serif, Bold';font-variant-ligatures:normal;font-variant-caps:normal;font-variant-numeric:normal;font-feature-settings:normal;text-align:start;writing-mode:lr-tb;text-anchor:start;fill:none;stroke:#000000;stroke-width:1;stroke-miterlimit:4;stroke-dasharray:none;stroke-opacity:1"
       id="path960" />
    <path
       d="m 1871.0898,95.645311 v 9.268729 h -76.0581 q 1.1813,11.4496 8.2692,17.17441 7.0878,5.7248 19.8096,5.7248 10.2683,0 20.991,-2.99871 10.8135,-3.08957 22.1722,-9.26873 v 25.08009 q -11.5405,4.36176 -23.0809,6.54263 -11.5405,2.27175 -23.081,2.27175 -27.6244,0 -42.9814,-13.99396 -15.2662,-14.08483 -15.2662,-39.43753 0,-24.898347 14.9936,-39.164919 15.0844,-14.266571 41.4366,-14.266571 23.9897,0 38.3471,14.448311 14.4483,14.448311 14.4483,38.6197 z m -33.4401,-10.813516 q 0,-9.268728 -5.4522,-14.902661 -5.3613,-5.724802 -14.0848,-5.724802 -9.4505,0 -15.357,5.361323 -5.9066,5.270453 -7.3605,15.26614 z"
       style="font-style:normal;font-variant:normal;font-weight:bold;font-stretch:normal;font-size:186.10151672px;font-family:sans-serif;-inkscape-font-specification:'sans-serif, Bold';font-variant-ligatures:normal;font-variant-caps:normal;font-variant-numeric:normal;font-feature-settings:normal;text-align:start;writing-mode:lr-tb;text-anchor:start;fill:none;stroke:#000000;stroke-width:1;stroke-miterlimit:4;stroke-dasharray:none;stroke-opacity:1"
       id="path962" />
    <path
       d="m 1882.2669,45.030787 h 32.5314 l 27.3518,69.061113 23.2627,-69.061113 h 32.5314 l -42.7997,111.406473 q -6.4518,16.99267 -15.0844,23.71704 -8.5418,6.81524 -22.6266,6.81524 h -18.8101 v -21.35442 h 10.1775 q 8.2691,0 11.9948,-2.63523 3.8165,-2.63522 5.9065,-9.45047 l 0.9087,-2.81696 z"
       style="font-style:normal;font-variant:normal;font-weight:bold;font-stretch:normal;font-size:186.10151672px;font-family:sans-serif;-inkscape-font-specification:'sans-serif, Bold';font-variant-ligatures:normal;font-variant-caps:normal;font-variant-numeric:normal;font-feature-settings:normal;text-align:start;writing-mode:lr-tb;text-anchor:start;fill:none;stroke:#000000;stroke-width:1;stroke-miterlimit:4;stroke-dasharray:none;stroke-opacity:1"
       id="path964" />
    <path
       d="m 2004.2143,45.030787 h 32.5314 l 25.3527,70.333283 25.2618,-70.333283 h 32.6223 l -40.0736,101.774263 h -35.7118 z"
       style="font-style:normal;font-variant:normal;font-weight:bold;font-stretch:normal;font-size:186.10151672px;font-family:sans-serif;-inkscape-font-specification:'sans-serif, Bold';font-variant-ligatures:normal;font-variant-caps:normal;font-variant-numeric:normal;font-feature-settings:normal;text-align:start;writing-mode:lr-tb;text-anchor:start;fill:none;stroke:#000000;stroke-width:1;stroke-miterlimit:4;stroke-dasharray:none;stroke-opacity:1"
       id="path966" />
    <path
       d="m 2184.0457,101.00663 q -10.1774,0 -15.357,3.45306 -5.0887,3.45305 -5.0887,10.17743 0,6.17915 4.0892,9.72307 4.18,3.45306 11.5404,3.45306 9.1779,0 15.4479,-6.54263 6.27,-6.6335 6.27,-16.53832 v -3.72567 z m 49.7059,-12.26743 v 58.06585 h -32.8041 v -15.0844 q -6.5426,9.26873 -14.7209,13.53962 -8.1783,4.18001 -19.9005,4.18001 -15.8113,0 -25.7162,-9.17786 -9.8139,-9.26873 -9.8139,-23.98965 0,-17.901363 12.2674,-26.261392 12.3583,-8.360029 38.7106,-8.360029 h 19.1735 v -2.544357 q 0,-7.72394 -6.0882,-11.267865 -6.0883,-3.634795 -18.9919,-3.634795 -10.45,0 -19.4461,2.090007 -8.9961,2.090007 -16.7201,6.270022 V 47.756883 q 10.4501,-2.544356 20.991,-3.816535 10.5409,-1.363048 21.0818,-1.363048 27.5336,0 39.7101,10.904386 12.2675,10.813516 12.2675,35.257514 z"
       style="font-style:normal;font-variant:normal;font-weight:bold;font-stretch:normal;font-size:186.10151672px;font-family:sans-serif;-inkscape-font-specification:'sans-serif, Bold';font-variant-ligatures:normal;font-variant-caps:normal;font-variant-numeric:normal;font-feature-settings:normal;text-align:start;writing-mode:lr-tb;text-anchor:start;fill:none;stroke:#000000;stroke-width:1;stroke-miterlimit:4;stroke-dasharray:none;stroke-opacity:1"
       id="path968" />
    <path
       d="m 2366.5125,84.831795 v 61.973255 h -32.7132 V 136.7185 99.370976 q 0,-13.176133 -0.6361,-18.173977 -0.5452,-4.997843 -1.9991,-7.36046 -1.9083,-3.180446 -5.1796,-4.906973 -3.2713,-1.817398 -7.4513,-1.817398 -10.1775,0 -15.9931,7.90568 -5.8157,7.814809 -5.8157,21.717901 V 146.80505 H 2264.193 V 45.030787 h 32.5314 v 14.90266 q 7.3605,-8.905248 15.6296,-13.085263 8.2692,-4.270884 18.2649,-4.270884 17.6287,0 26.7157,10.813516 9.1779,10.813516 9.1779,31.440979 z"
       style="font-style:normal;font-variant:normal;font-weight:bold;font-stretch:normal;font-size:186.10151672px;font-family:sans-serif;-inkscape-font-specification:'sans-serif, Bold';font-variant-ligatures:normal;font-variant-caps:normal;font-variant-numeric:normal;font-feature-settings:normal;text-align:start;writing-mode:lr-tb;text-anchor:start;fill:none;stroke:#000000;stroke-width:1;stroke-miterlimit:4;stroke-dasharray:none;stroke-opacity:1"
       id="path970" />
  </g>
</svg>
